<?xml version="1.0" standalone="no"?>
<!DOCTYPE svg PUBLIC "-//W3C//DTD SVG 20010904//EN"
 "http://www.w3.org/TR/2001/REC-SVG-20010904/DTD/svg10.dtd">
<svg version="1.0" xmlns="http://www.w3.org/2000/svg"
 width="1024.000000pt" height="1024.000000pt" viewBox="0 0 1024.000000 1024.000000"
 preserveAspectRatio="xMidYMid meet">
<metadata>
Created by potrace 1.14, written by Peter Selinger 2001-2017
</metadata>
<g transform="translate(0.000000,1024.000000) scale(0.100000,-0.100000)"
fill="#000000" stroke="none">
<path d="M5504 8961 c-186 -53 -360 -220 -424 -406 -33 -95 -44 -212 -30 -325
10 -91 46 -260 71 -338 26 -81 156 -82 189 -1 12 29 10 45 -19 160 -77 305
-53 467 89 609 100 100 238 143 355 110 42 -12 105 -66 105 -89 0 -5 -20 -12
-45 -15 -59 -9 -89 -45 -82 -99 17 -127 201 -142 292 -23 106 139 6 354 -194
416 -80 25 -220 26 -307 1z"/>
<path d="M6838 8876 c-88 -31 -131 -94 -135 -195 -1 -35 -5 -66 -8 -70 -132
-129 -992 -1015 -1049 -1080 l-38 -44 -87 21 c-333 81 -711 41 -1044 -112
-425 -195 -760 -587 -876 -1026 -10 -41 -22 -92 -26 -112 l-6 -38 -87 0 c-156
0 -229 -57 -240 -185 l-5 -63 -46 -17 c-106 -39 -197 -128 -246 -242 -19 -46
-20 -73 -25 -562 l-5 -515 -190 219 c-334 384 -310 351 -325 441 -18 117 -24
393 -11 528 44 453 241 920 539 1277 l80 97 82 -39 c155 -75 273 -166 311
-241 25 -50 24 -58 -10 -58 -68 0 -102 -79 -62 -144 26 -42 74 -60 138 -53 54
6 87 29 128 86 65 92 27 243 -92 372 -61 66 -200 162 -287 200 -31 13 -56 27
-56 31 0 10 152 147 256 230 358 288 847 500 1302 564 132 19 164 35 178 88
14 57 -39 116 -104 116 -68 0 -347 -55 -487 -95 -475 -138 -887 -381 -1269
-748 -92 -89 -100 -94 -128 -86 -16 4 -74 13 -127 19 -228 27 -456 -36 -649
-179 -280 -208 -402 -552 -332 -938 19 -108 74 -315 106 -401 32 -86 142 -96
184 -17 16 29 14 37 -44 258 -48 180 -66 284 -66 382 1 301 174 555 446 654
116 43 332 68 349 41 3 -6 -29 -56 -73 -113 -187 -242 -326 -512 -417 -812
-73 -243 -104 -449 -105 -699 l0 -160 -108 106 c-128 127 -169 144 -206 85
-34 -54 152 -477 321 -732 169 -253 420 -549 622 -730 l111 -100 0 -106 0
-107 68 -7 c37 -3 173 -4 302 -1 l235 5 38 48 c112 142 213 334 247 467 37
145 20 300 -45 428 -42 84 -44 120 -9 155 21 21 32 24 61 20 20 -4 44 -14 54
-23 23 -21 66 -108 73 -146 3 -15 7 -32 11 -38 13 -21 17 -61 19 -222 2 -112
0 -165 -7 -161 -7 4 -8 -6 -4 -28 4 -19 4 -29 -1 -22 -4 6 -15 -14 -26 -50
-14 -44 -16 -62 -8 -65 7 -2 12 -8 12 -13 0 -4 -6 -6 -14 -3 -19 7 -53 -55
-37 -65 8 -5 6 -19 -7 -44 -10 -21 -21 -35 -24 -31 -4 3 -4 -4 -1 -16 5 -19 9
-15 26 24 11 25 23 46 28 46 13 0 12 -4 -25 -72 -19 -35 -40 -62 -46 -60 -6 1
-8 -2 -5 -8 9 -14 -34 -62 -48 -53 -5 3 -7 0 -5 -8 5 -14 -49 -99 -63 -99 -4
0 -9 -6 -11 -14 -6 -26 -149 -186 -160 -180 -7 5 -8 2 -3 -5 8 -15 -83 -113
-97 -105 -5 3 -7 0 -6 -8 2 -7 -3 -12 -10 -10 -8 1 -11 -2 -8 -7 5 -8 -127
-148 -451 -479 -40 -40 -77 -71 -82 -68 -5 3 -8 -1 -7 -8 0 -8 -71 -88 -159
-178 -88 -90 -219 -225 -291 -300 -129 -135 -160 -158 -210 -158 -38 0 -74 42
-74 86 0 36 18 59 160 204 16 16 323 334 555 575 247 256 323 335 428 450 l37
40 -103 3 -102 3 -165 -168 c-90 -92 -337 -343 -549 -558 -429 -435 -435 -443
-435 -565 -1 -171 139 -288 306 -258 29 5 69 18 90 29 21 11 127 110 235 222
109 111 297 303 419 427 121 124 255 262 299 308 43 45 82 82 86 82 4 0 42
-24 83 -54 87 -63 257 -162 406 -236 271 -136 568 -227 905 -277 169 -24 571
-24 740 0 535 80 980 269 1367 582 73 59 96 73 145 83 90 18 212 104 249 174
l14 28 54 -35 c155 -99 365 -106 529 -17 112 60 198 192 205 315 5 85 -10 125
-54 143 -48 20 -70 17 -104 -13 -24 -23 -31 -40 -40 -98 -14 -91 -47 -140
-120 -178 -51 -26 -62 -28 -145 -24 -98 4 -126 14 -207 75 l-48 36 0 943 c0
660 -3 958 -11 995 -35 163 -174 308 -319 333 l-40 7 0 51 c-1 72 -29 129 -81
164 -38 25 -53 28 -136 31 -86 4 -93 6 -98 25 -25 123 -25 119 5 157 16 19 71
77 123 129 l95 94 134 -53 c153 -61 290 -127 357 -172 236 -160 383 -403 458
-757 24 -112 27 -148 27 -331 0 -120 -5 -238 -12 -285 -59 -367 -157 -642
-336 -944 -60 -102 -64 -117 -41 -161 35 -67 121 -67 172 0 64 84 172 294 236
455 135 339 196 670 184 995 -13 355 -107 661 -275 900 -93 132 -238 265 -375
344 -98 56 -270 115 -252 87 4 -7 -10 -11 -42 -11 l-48 1 34 15 c19 8 30 18
25 23 -18 15 -166 41 -183 31 -10 -6 -11 -10 -3 -10 6 0 12 -4 12 -10 0 -28
-149 70 -221 146 -73 77 -95 121 -129 252 -9 37 -14 42 -39 42 -47 0 -66 -32
-64 -109 l2 -67 -60 -59 c-32 -32 -60 -57 -62 -54 -2 2 -20 27 -40 55 -93 129
-322 321 -502 419 -38 21 -72 40 -74 41 -10 8 101 124 662 697 l379 387 52 0
c138 0 230 122 192 254 -32 110 -150 170 -258 132z m-1688 -1525 c0 -6 9 -8
20 -6 21 4 24 -3 14 -29 -3 -9 -10 -14 -14 -11 -4 3 -13 -9 -20 -25 -7 -17
-16 -30 -21 -30 -5 0 -11 -11 -15 -25 -3 -14 -11 -22 -17 -18 -7 4 -8 0 -4
-12 5 -11 1 -22 -9 -29 -9 -7 -17 -26 -19 -44 -1 -17 -6 -37 -11 -44 -24 -34
-44 -78 -44 -98 0 -11 -4 -19 -9 -16 -4 3 -6 -7 -4 -22 3 -24 2 -25 -7 -7 -8
15 -9 10 -5 -25 4 -35 3 -40 -5 -22 -11 25 -23 31 -13 5 5 -12 3 -14 -7 -8 -9
6 -11 4 -5 -4 4 -7 8 -32 9 -56 1 -31 -2 -41 -11 -38 -13 5 -18 -13 -15 -50 1
-11 -2 -15 -9 -11 -9 5 -10 -1 -5 -22 5 -23 4 -25 -4 -11 -15 23 -25 22 -36
-5 -12 -26 -7 -61 7 -53 5 4 9 -6 9 -22 l-1 -28 -16 30 c-49 89 -94 212 -90
240 3 17 48 134 100 260 l96 230 58 6 c96 9 103 9 103 0z m294 -27 c43 -10 80
-24 83 -30 2 -7 -18 -63 -45 -126 -27 -62 -73 -170 -102 -240 -29 -70 -56
-125 -61 -122 -5 3 -6 -1 -3 -9 6 -16 -39 -126 -125 -309 l-50 -108 -43 0
c-24 0 -59 -3 -80 -6 -33 -6 -38 -4 -52 24 -9 17 -16 39 -16 48 0 28 285 695
361 846 17 34 35 58 42 55 7 -2 47 -13 91 -23z m-584 -15 c0 -6 -6 -9 -14 -6
-10 4 -24 -18 -49 -76 -39 -91 -75 -192 -79 -222 -2 -12 -18 16 -42 72 -37 89
-38 93 -26 141 l13 49 66 21 c105 33 131 37 131 21z m-10 -29 c0 -5 -5 -10
-11 -10 -5 0 -7 5 -4 10 3 6 8 10 11 10 2 0 4 -4 4 -10z m924 -70 c85 -50 89
-55 82 -92 -6 -30 -5 -31 8 -13 34 44 11 -13 -77 -196 -51 -107 -129 -269
-172 -361 l-79 -168 -109 0 c-83 0 -108 3 -104 13 117 281 380 847 394 847 3
0 29 -14 57 -30z m-1284 -72 c10 -24 55 -126 100 -228 237 -532 273 -617 274
-637 1 -25 -105 -176 -116 -165 -20 21 -178 353 -172 363 4 7 3 10 -2 6 -9 -5
-86 150 -219 442 -64 141 -67 158 -32 160 4 0 16 9 25 21 17 20 100 78 115 79
4 1 16 -18 27 -41z m1629 -183 c73 -77 80 -89 59 -101 -8 -5 -9 -2 -5 10 4 11
3 15 -4 11 -6 -4 -8 -14 -5 -22 3 -8 -14 -45 -38 -82 -24 -38 -56 -90 -71
-117 -43 -79 -127 -227 -141 -250 -11 -19 -23 -21 -124 -23 l-111 -2 39 73
c22 40 77 143 122 228 103 196 192 350 201 350 3 0 39 -34 78 -75z m-1810
-279 c77 -154 141 -286 141 -293 0 -7 5 -13 10 -13 6 0 10 -11 10 -25 0 -14 5
-25 11 -25 5 0 7 -4 4 -10 -3 -5 -1 -10 5 -10 6 0 9 -4 6 -9 -3 -4 17 -55 45
-111 28 -57 59 -125 70 -152 l19 -48 -109 0 -109 0 -20 48 c-11 26 -46 101
-77 167 -94 200 -111 236 -153 335 -120 282 -129 304 -109 297 7 -3 11 -10 9
-16 -1 -7 2 -10 8 -6 5 3 7 18 4 31 -5 21 2 34 42 75 26 27 49 48 50 46 1 -1
65 -128 143 -281z m2404 176 c42 -49 54 -68 42 -70 -16 -4 -13 -34 5 -57 8 -9
-92 -125 -107 -125 -3 0 0 6 6 14 9 11 8 15 -6 20 -10 4 -14 4 -10 0 4 -4 1
-14 -6 -22 -9 -12 -9 -16 1 -19 13 -5 7 -23 -8 -23 -5 0 -32 46 -60 101 l-50
101 47 55 c27 30 55 63 63 73 8 11 17 19 20 19 3 0 31 -30 63 -67z m-1756
-104 c-3 -8 -6 -5 -6 6 -1 11 2 17 5 13 3 -3 4 -12 1 -19z m2090 -4 c-3 -3
-12 -4 -19 -1 -8 3 -5 6 6 6 11 1 17 -2 13 -5z m50 -10 c-3 -3 -12 -4 -19 -1
-8 3 -5 6 6 6 11 1 17 -2 13 -5z m-24 -21 c-7 -2 -19 -2 -25 0 -7 3 -2 5 12 5
14 0 19 -2 13 -5z m-3103 -28 c0 6 7 1 15 -9 11 -14 12 -23 4 -32 -6 -7 -8
-18 -4 -25 6 -8 9 -8 15 1 5 8 9 7 13 -5 5 -10 3 -14 -4 -9 -8 5 -10 -3 -7
-25 6 -38 -7 -41 -18 -3 -5 19 -8 22 -11 10 -2 -9 3 -30 12 -47 14 -29 14 -30
-2 -24 -31 11 -103 64 -103 75 0 6 16 33 36 60 27 36 39 46 45 36 5 -7 9 -8 9
-3z m2411 -57 c15 -30 16 -36 4 -32 -12 5 -13 2 -6 -17 5 -13 15 -23 22 -21 9
2 9 -1 -1 -14 -9 -10 -16 -12 -18 -5 -2 6 -8 8 -14 5 -7 -4 -6 -9 1 -14 15 -9
3 -40 -15 -40 -8 0 -14 -5 -14 -11 0 -5 4 -7 10 -4 6 3 7 -1 4 -10 -4 -9 -11
-14 -18 -12 -18 6 -51 -42 -37 -56 6 -6 11 -16 11 -21 0 -6 -7 0 -16 12 -21
30 -31 28 -49 -10 -14 -29 -14 -31 0 -14 17 23 20 14 5 -15 -15 -26 -3 -44 17
-27 9 7 3 -11 -12 -39 -16 -29 -32 -50 -36 -48 -8 6 13 55 24 55 4 0 7 5 7 10
0 26 -20 5 -39 -41 -16 -35 -27 -49 -37 -45 -17 7 -18 -6 -2 -22 10 -10 16 -8
31 10 17 22 17 22 0 -13 -18 -35 -18 -35 -34 -15 -30 39 -89 147 -89 163 0 43
71 154 177 276 86 98 81 98 124 15z m-2311 -133 c0 -5 -5 -3 -10 5 -5 8 -10
20 -10 25 0 6 5 3 10 -5 5 -8 10 -19 10 -25z m-225 -106 c-10 18 63 -25 204
-118 199 -132 211 -142 214 -180 1 -11 4 -21 8 -21 4 0 10 -7 13 -16 3 -8 2
-12 -4 -9 -6 3 -13 -1 -16 -9 -6 -16 -24 -12 -24 5 0 6 4 8 10 4 10 -6 5 53
-5 64 -4 3 -6 -1 -5 -9 6 -39 -3 -41 -21 -5 -17 33 -19 35 -14 11 11 -55 46
-115 68 -119 12 -2 -13 -5 -57 -6 -71 -1 -84 2 -135 31 -82 47 -163 103 -189
132 -13 13 -50 37 -82 53 -60 28 -70 43 -49 73 9 12 10 11 6 -7 -4 -16 1 -22
21 -26 43 -8 53 2 29 29 -11 13 -27 24 -34 24 -18 0 -16 28 7 79 20 44 20 44
42 25 12 -10 18 -13 13 -5z m2433 -14 c-3 -3 -9 2 -12 12 -6 14 -5 15 5 6 7
-7 10 -15 7 -18z m237 -96 c16 -60 15 -64 -22 -74 -45 -11 -84 -46 -105 -92
-20 -45 -41 -53 -45 -17 -3 18 -2 18 6 -1 9 -19 10 -19 10 3 1 12 6 22 12 22
6 0 9 9 6 20 -3 11 -1 18 3 15 5 -3 12 1 17 8 4 8 25 25 45 39 21 13 35 28 31
31 -3 4 -1 7 6 7 8 0 10 7 6 21 -5 15 -4 19 5 14 8 -5 9 3 4 32 -10 54 5 35
21 -28z m-513 -214 c43 -60 105 -147 138 -192 l60 -82 413 -3 c455 -3 436 -1
506 -70 35 -34 64 -89 75 -144 7 -29 5 -32 -25 -38 -17 -3 -325 -6 -683 -7
-358 0 -660 -4 -671 -8 -17 -7 -14 -10 20 -21 99 -32 257 -140 347 -238 152
-166 221 -355 220 -603 0 -159 -24 -264 -92 -404 -82 -170 -192 -283 -360
-369 -134 -69 -236 -98 -368 -104 -191 -8 -326 26 -508 129 -97 54 -233 186
-287 278 -279 473 -126 1041 347 1281 63 32 83 46 72 52 -9 5 -484 9 -1057 10
l-1041 2 6 50 c8 68 50 133 110 171 l49 30 753 3 752 2 138 195 139 195 435
-2 434 -3 78 -110z m328 5 c0 -5 -6 -10 -14 -10 -8 0 -16 -6 -19 -12 -2 -7 -7
-10 -11 -7 -3 3 -4 14 0 23 7 17 44 23 44 6z m-2627 -21 c53 -11 57 -14 57
-39 0 -24 -5 -28 -37 -34 -21 -3 -104 -6 -185 -6 l-148 0 0 40 0 39 103 4 c56
1 114 4 128 5 14 1 51 -3 82 -9z m3151 -12 c11 -8 17 -23 14 -38 l-3 -24 -172
-3 -173 -3 0 40 0 41 158 0 c114 0 163 -4 176 -13z m-2550 -23 c3 -8 2 -12 -4
-9 -6 3 -10 10 -10 16 0 14 7 11 14 -7z m2762 -590 c79 -52 67 -175 -20 -204
-44 -14 -80 -5 -116 32 -24 23 -30 38 -30 71 1 50 18 85 51 103 33 18 85 17
115 -2z m-3806 -719 l0 -685 -70 0 -70 0 0 685 0 685 70 0 70 0 0 -685z
m-1040 548 c135 -142 424 -495 469 -571 38 -66 72 -152 64 -165 -3 -5 -1 -7 4
-4 6 4 20 -17 33 -51 12 -31 26 -65 31 -75 21 -39 -36 7 -146 117 -167 167
-402 464 -391 493 3 7 0 12 -6 10 -6 -1 -13 4 -16 12 -3 8 0 11 7 7 17 -11 13
0 -6 15 -11 10 -14 10 -9 2 4 -7 5 -13 2 -13 -16 0 -118 217 -129 278 -6 29
-5 31 11 23 9 -5 46 -40 82 -78z m1777 -895 c-3 -8 -6 -5 -6 6 -1 11 2 17 5
13 3 -3 4 -12 1 -19z m-56 -99 c-5 -13 -10 -19 -10 -12 -1 15 10 45 15 40 3
-2 0 -15 -5 -28z m-26 -78 c-3 -12 -10 -21 -15 -21 -4 0 -3 11 3 24 14 29 22
27 12 -3z m1150 -357 c167 -95 312 -130 510 -121 152 6 247 31 391 102 l112
54 562 7 562 7 -7 -109 c-4 -60 -11 -124 -17 -142 -13 -44 -51 -87 -105 -119
l-45 -26 -1713 -1 -1712 -1 51 60 c47 55 128 162 217 288 l34 49 545 -4 545
-4 70 -40z m1629 -544 c-29 -26 -216 -140 -314 -189 -392 -200 -770 -291
-1202 -291 -261 0 -510 35 -756 106 -181 53 -450 171 -642 283 -37 21 -139 87
-147 95 -1 1 689 2 1534 3 844 1 1531 -2 1527 -7z"/>
<path d="M5141 7314 c0 -11 3 -14 6 -6 3 7 2 16 -1 19 -3 4 -6 -2 -5 -13z"/>
<path d="M4907 6761 c-4 -17 -3 -21 5 -13 5 5 8 16 6 23 -3 8 -7 3 -11 -10z"/>
<path d="M5415 7079 c-4 -6 -5 -12 -2 -15 2 -3 7 2 10 11 7 17 1 20 -8 4z"/>
<path d="M5397 7043 c-4 -3 -7 -13 -7 -21 0 -18 13 -7 16 13 2 17 1 18 -9 8z"/>
<path d="M5370 7010 c0 -8 5 -22 10 -30 9 -13 10 -13 10 0 0 8 -5 22 -10 30
-9 13 -10 13 -10 0z"/>
<path d="M5360 6961 c0 -5 5 -13 10 -16 6 -3 10 -2 10 4 0 5 -4 13 -10 16 -5
3 -10 2 -10 -4z"/>
<path d="M5336 6883 c-6 -14 -5 -15 5 -6 7 7 10 15 7 18 -3 3 -9 -2 -12 -12z"/>
<path d="M5770 6971 c0 -11 4 -22 9 -25 4 -3 6 6 3 19 -5 30 -12 33 -12 6z"/>
<path d="M5661 6704 c0 -11 3 -14 6 -6 3 7 2 16 -1 19 -3 4 -6 -2 -5 -13z"/>
<path d="M6126 6904 c-5 -14 -4 -15 9 -4 17 14 19 20 6 20 -5 0 -12 -7 -15
-16z"/>
<path d="M6145 6890 c-3 -5 1 -10 10 -10 9 0 13 5 10 10 -3 6 -8 10 -10 10 -2
0 -7 -4 -10 -10z"/>
<path d="M6090 6781 c0 -6 4 -13 10 -16 6 -3 7 1 4 9 -7 18 -14 21 -14 7z"/>
<path d="M6055 6700 c-3 -5 -1 -10 4 -10 6 0 11 5 11 10 0 6 -2 10 -4 10 -3 0
-8 -4 -11 -10z"/>
<path d="M5953 6520 c-3 -11 -8 -18 -12 -16 -4 3 -7 -4 -7 -14 0 -10 3 -17 7
-14 9 5 30 64 23 64 -3 0 -8 -9 -11 -20z"/>
<path d="M6730 6720 c0 -5 5 -10 11 -10 5 0 7 5 4 10 -3 6 -8 10 -11 10 -2 0
-4 -4 -4 -10z"/>
<path d="M3875 6210 c3 -5 11 -10 16 -10 6 0 7 5 4 10 -3 6 -11 10 -16 10 -6
0 -7 -4 -4 -10z"/>
<path d="M5240 5997 c-34 -17 -70 -74 -70 -111 0 -63 63 -126 125 -126 64 0
125 59 125 122 0 95 -97 157 -180 115z"/>
<path d="M5634 6000 c-12 -4 -31 -20 -42 -35 -82 -104 31 -250 148 -190 65 34
89 109 55 174 -25 49 -105 74 -161 51z"/>
<path d="M5365 5340 c-88 -23 -136 -43 -199 -85 -98 -63 -183 -159 -239 -271
-53 -105 -70 -181 -70 -309 0 -93 4 -122 26 -186 53 -154 158 -291 287 -374
121 -77 217 -105 360 -105 119 0 189 17 308 76 173 84 303 248 347 434 34 148
12 336 -57 478 -47 97 -190 238 -289 285 -161 77 -325 97 -474 57z m356 -119
c92 -35 212 -130 283 -222 79 -104 112 -309 73 -457 -29 -109 -66 -171 -153
-259 -94 -95 -165 -134 -292 -161 -239 -49 -491 76 -593 294 -90 191 -93 352
-8 533 57 123 207 244 355 286 75 22 263 14 335 -14z"/>
<path d="M5429 5047 c-99 -28 -167 -84 -215 -179 -137 -270 115 -585 402 -504
263 75 348 393 159 595 -60 64 -127 93 -225 98 -42 1 -95 -3 -121 -10z"/>
<path d="M2300 4981 c0 -6 4 -13 10 -16 6 -3 7 1 4 9 -7 18 -14 21 -14 7z"/>
<path d="M2330 4955 c0 -5 5 -17 10 -25 5 -8 10 -10 10 -5 0 6 -5 17 -10 25
-5 8 -10 11 -10 5z"/>
<path d="M4319 8687 c-59 -45 -47 -149 20 -177 99 -40 186 98 106 168 -29 25
-99 30 -126 9z"/>
<path d="M3603 8415 c-59 -25 -72 -100 -27 -154 70 -83 209 12 159 109 -9 18
-31 38 -50 46 -41 17 -42 17 -82 -1z"/>
<path d="M7530 8159 c-182 -47 -345 -199 -411 -382 -18 -51 -23 -88 -26 -207
l-3 -145 -117 -117 c-65 -65 -121 -118 -125 -118 -4 0 -18 11 -32 25 -36 35
-77 33 -110 -6 -14 -17 -26 -38 -26 -47 0 -66 161 -207 335 -292 129 -63 145
-66 179 -35 28 26 34 62 15 97 -10 18 -3 29 58 90 l69 69 75 -40 c93 -50 178
-71 294 -71 176 0 309 54 431 175 125 124 180 267 171 445 -12 265 -200 499
-453 564 -85 22 -230 20 -324 -5z m326 -218 c252 -117 324 -432 145 -633 -59
-66 -167 -119 -258 -125 -240 -18 -443 167 -443 401 0 72 22 153 54 205 29 45
112 123 156 146 98 51 244 53 346 6z m-673 -691 c17 -29 17 -30 -2 -51 -11
-12 -18 -26 -16 -30 3 -4 -5 -18 -17 -31 -13 -13 -17 -16 -9 -6 30 39 2 25
-47 -22 -55 -53 -64 -67 -33 -50 29 15 33 12 14 -9 -16 -20 -17 -19 -46 5 -15
13 -33 24 -38 24 -24 0 -2 32 78 112 48 49 90 88 93 88 3 0 14 -13 23 -30z"/>
<path d="M6693 7925 c-39 -16 -53 -42 -53 -93 0 -56 35 -92 90 -92 107 0 141
145 45 186 -41 17 -42 17 -82 -1z"/>
<path d="M2829 7892 c-66 -59 -26 -172 62 -172 28 0 77 27 89 49 15 30 12 83
-8 107 -41 51 -97 57 -143 16z"/>
<path d="M6710 7013 c0 -39 169 -203 233 -226 35 -13 15 9 -35 40 -50 29 -126
101 -176 167 -12 16 -22 24 -22 19z"/>
<path d="M6967 6776 c-4 -10 0 -12 14 -9 10 3 16 9 13 14 -8 13 -21 11 -27 -5z"/>
<path d="M8149 6361 c-73 -73 -1 -198 94 -162 47 18 67 47 67 95 0 37 -5 48
-31 70 -43 36 -91 35 -130 -3z"/>
<path d="M8327 5690 c-81 -64 -13 -202 86 -174 43 13 80 69 73 109 -14 71
-104 108 -159 65z"/>
<path d="M8284 4941 c-32 -14 -54 -51 -54 -89 0 -44 14 -68 51 -87 59 -31 139
21 139 91 0 64 -75 111 -136 85z"/>
<path d="M2025 4642 c-39 -8 -75 -53 -75 -95 0 -50 15 -76 53 -92 85 -35 167
48 131 133 -7 17 -17 33 -23 37 -21 12 -66 21 -86 17z"/>
<path d="M8204 4183 c-69 -13 -95 -122 -41 -169 84 -72 202 19 156 120 -11 23
-65 58 -86 55 -4 -1 -18 -4 -29 -6z"/>
<path d="M3834 4035 c-1 -16 2 -22 12 -18 17 6 18 17 2 31 -10 8 -13 4 -14
-13z"/>
<path d="M2128 3975 c-35 -20 -48 -44 -48 -93 0 -33 6 -45 31 -66 42 -36 89
-35 131 3 27 24 33 36 33 70 0 74 -82 122 -147 86z"/>
<path d="M3720 3865 c-7 -8 -9 -15 -6 -15 4 0 14 7 22 15 9 8 11 15 6 15 -5 0
-15 -7 -22 -15z"/>
<path d="M2517 3689 c-27 -15 -49 -74 -41 -107 20 -84 120 -104 174 -35 48 62
2 153 -77 153 -21 0 -46 -5 -56 -11z"/>
<path d="M3539 3663 c-13 -16 -12 -17 3 -5 9 8 23 10 29 6 8 -4 9 -3 5 4 -10
17 -21 15 -37 -5z"/>
<path d="M3464 3558 l-19 -23 23 19 c21 18 27 26 19 26 -2 0 -12 -10 -23 -22z"/>
<path d="M3370 3513 c0 -1 8 -7 18 -12 13 -7 19 -6 19 2 0 7 -9 13 -19 13 -10
0 -18 -1 -18 -3z"/>
<path d="M7463 3196 c-39 -18 -53 -43 -53 -94 0 -33 6 -45 31 -66 57 -48 135
-25 159 48 26 80 -56 148 -137 112z"/>
<path d="M6771 2824 c-27 -22 -31 -33 -31 -73 0 -37 5 -52 23 -69 32 -30 78
-37 115 -18 39 20 52 44 52 94 0 33 -6 45 -31 66 -19 17 -43 26 -64 26 -21 0
-45 -9 -64 -26z"/>
<path d="M3519 2801 c-55 -56 -29 -153 45 -167 95 -17 155 98 87 167 -22 21
-39 29 -66 29 -27 0 -44 -8 -66 -29z"/>
</g>
</svg>
